# xmcd
#
# Track frame offsets:
#	150
#	17027
#	31337
#	43960
#	56530
#	70047
#	86650
#	103187
#	117570
#
# Disc length: 1780 seconds
#
# Revision: 5
# Processed by: cddbd v1.5.2PL0 Copyright (c) Steve Scherf et al.
# Submitted via: EasyCDDAExtractor 12.0.1.1
#
DISCID=7906f209
DTITLE=Yolandita Monge - Historia De Amor
DYEAR=1981
DGENRE=Latin
TTITLE0=Una Historia De Amor (Cedo Para Mim)
TTITLE1=Que Te Hice
TTITLE2=Hoy Te Esperare
TTITLE3=Vive Tu Vida
TTITLE4=Levanto Mi Copa
TTITLE5=Si
TTITLE6=Recuerdos (Lembrancas)
TTITLE7=Seras Mio
TTITLE8=Perdoname Otra Vez
EXTD=ID3G: 116
EXTT0=
EXTT1=
EXTT2=
EXTT3=
EXTT4=
EXTT5=
EXTT6=
EXTT7=
EXTT8=
PLAYORDER=
